<svg version="1.1" xmlns="http://www.w3.org/2000/svg" xmlns:xlink="http://www.w3.org/1999/xlink" width="50px" height="50px" viewBox="0,0,256,256"><g fill="#808080" fill-rule="nonzero" stroke="none" stroke-width="1" stroke-linecap="butt" stroke-linejoin="miter" stroke-miterlimit="10" stroke-dasharray="" stroke-dashoffset="0" font-family="none" font-weight="none" font-size="none" text-anchor="none" style="mix-blend-mode: normal"><g transform="scale(5.12,5.12)"><path d="M45,45c-0.52344,0 -0.96484,-0.40625 -0.99609,-0.93359c-0.04297,-0.54687 -1.18359,-12.67969 -22.00391,-13.05859v6.99219c0,0.38672 -0.22266,0.73828 -0.57031,0.90234c-0.34766,0.16406 -0.76172,0.11719 -1.05859,-0.125l-16,-13c-0.23437,-0.19141 -0.37109,-0.47656 -0.37109,-0.77734c0,-0.30078 0.13672,-0.58594 0.37109,-0.77734l16,-13c0.30078,-0.24219 0.71094,-0.29297 1.05859,-0.125c0.34766,0.16406 0.57031,0.51563 0.57031,0.90234v7.01563c22.20313,0.62891 23.875,22.28906 23.99219,24.74609c0.01953,0.07813 0.02734,0.15625 0.02734,0.23828c0,0.55469 -0.44531,1 -1,1c-0.00391,0 -0.01172,0 -0.01953,0z"></path></g></g></svg>