<svg version="1.1" xmlns="http://www.w3.org/2000/svg" xmlns:xlink="http://www.w3.org/1999/xlink" width="50px" height="50px" viewBox="0,0,256,256"><g fill="#76abae" fill-rule="nonzero" stroke="none" stroke-width="1" stroke-linecap="butt" stroke-linejoin="miter" stroke-miterlimit="10" stroke-dasharray="" stroke-dashoffset="0" font-family="none" font-weight="none" font-size="none" text-anchor="none" style="mix-blend-mode: normal"><g transform="scale(5.12,5.12)"><path d="M25,4c-12.69922,0 -23,9 -23,20c0,6.19922 3.30078,12.10156 9,15.80078c-0.10156,1.09766 -0.69922,3.59766 -2.80078,6.59766l-1.09766,1.60156h2c5.39844,0 9.09766,-3.30078 10.29687,-4.60156c1.80078,0.40234 3.70313,0.60156 5.60156,0.60156c12.69922,0 23,-9 23,-20c0,-11 -10.30078,-20 -23,-20zM15,26c-1.10156,0 -2,-0.89844 -2,-2c0,-1.10156 0.89844,-2 2,-2c1.10156,0 2,0.89844 2,2c0,1.10156 -0.89844,2 -2,2zM25,26c-1.10156,0 -2,-0.89844 -2,-2c0,-1.10156 0.89844,-2 2,-2c1.10156,0 2,0.89844 2,2c0,1.10156 -0.89844,2 -2,2zM35,26c-1.10156,0 -2,-0.89844 -2,-2c0,-1.10156 0.89844,-2 2,-2c1.10156,0 2,0.89844 2,2c0,1.10156 -0.89844,2 -2,2z"></path></g></g></svg>