<svg version="1.1" xmlns="http://www.w3.org/2000/svg" xmlns:xlink="http://www.w3.org/1999/xlink" width="64px" height="64px" viewBox="0,0,256,256"><g fill="#76abae" fill-rule="nonzero" stroke="none" stroke-width="1" stroke-linecap="butt" stroke-linejoin="miter" stroke-miterlimit="10" stroke-dasharray="" stroke-dashoffset="0" font-family="none" font-weight="none" font-size="none" text-anchor="none" style="mix-blend-mode: normal"><g transform="scale(4,4)"><path d="M30.65039,0.02734c-13.19194,0.55539 -24.6894,9.15347 -28.95117,21.65039l1.90039,0.64258c4.26927,-12.50165 16.21115,-20.7416 29.41416,-20.29588c13.203,0.44572 24.56199,9.47227 27.97842,22.23338l1.92969,-0.51758c-3.87435,-14.48795 -17.28773,-24.34402 -32.27148,-23.71289zM31.66797,11.00781c-4.34124,0.19166 -7.73563,3.81374 -7.64543,8.15828c0.0902,4.34453 3.63201,7.82261 7.97746,7.83391c4.41622,-0.00496 7.99504,-3.58378 8,-8c-0.00025,-2.17918 -0.88946,-4.26395 -2.46211,-5.77245c-1.57265,-1.5085 -3.69262,-2.31018 -5.86992,-2.21974zM32,13c3.31234,0.00331 5.99669,2.68766 6,6c0,3.31371 -2.68629,6 -6,6c-3.31371,0 -6,-2.68629 -6,-6c0,-3.31371 2.68629,-6 6,-6zM1.07422,23.74219c-2.55414,9.60777 -0.50208,19.85689 5.55421,27.74069c6.05628,7.8838 15.4301,12.5084 25.37157,12.51712c1.029,0 2.0708,-0.05044 3.0918,-0.14844l-0.19141,-1.99023c-0.957,0.092 -1.93439,0.13867 -2.90039,0.13867c-9.32014,-0.00829 -18.10805,-4.34399 -23.78568,-11.73517c-5.67764,-7.39118 -7.60124,-16.99978 -5.20651,-26.00702zM63.40039,25.80859l-1.96289,0.38281c0.12533,0.63867 0.23045,1.2855 0.31445,1.9375l1.98438,-0.25781c-0.089,-0.688 -0.20294,-1.3815 -0.33594,-2.0625zM26,29c-3.86394,0.00496 -6.99504,3.13606 -7,7v10c0,1.65685 1.34315,3 3,3h11v-2h-11c-0.55228,0 -1,-0.44772 -1,-1v-10c0.00331,-2.76005 2.23995,-4.99669 5,-5h12c2.40032,0.00459 4.45955,1.71229 4.9082,4.07031c-5.23921,0.62282 -9.09317,5.20888 -8.80457,10.47709c0.2886,5.2682 4.62047,9.40582 9.89636,9.4526c5.52033,-0.00606 9.99394,-4.47967 10,-10c-0.00596,-5.15898 -3.93553,-9.4667 -9.07227,-9.94531c-0.47601,-3.46356 -3.43162,-6.04671 -6.92773,-6.05469zM63.9375,29.9375l-2,0.12695c0.04133,0.64067 0.0625,1.28555 0.0625,1.93555c0.06046,14.72349 -10.62011,27.2936 -25.16016,29.61133l0.32031,1.97461c15.50957,-2.47291 26.90261,-15.88058 26.83984,-31.58594c0,-0.69267 -0.02117,-1.3805 -0.0625,-2.0625zM44,37c4.41622,0.00496 7.99504,3.58378 8,8c0,4.41828 -3.58172,8 -8,8c-4.41828,0 -8,-3.58172 -8,-8c0,-4.41828 3.58172,-8 8,-8zM44.08789,38.00195c-0.81043,-0.02375 -1.59596,0.28153 -2.17767,0.84631c-0.5817,0.56478 -0.91004,1.34096 -0.91022,2.15174v1h-1c-1.65685,0 -3,1.34315 -3,3c0,1.65685 1.34315,3 3,3h1v1c0,1.65685 1.34315,3 3,3c1.65685,0 3,-1.34315 3,-3v-1h1c1.65685,0 3,-1.34315 3,-3c0,-1.65685 -1.34315,-3 -3,-3h-1v-1c-0.00036,-1.62237 -1.29043,-2.95052 -2.91211,-2.99805zM43.9707,40c0.27026,-0.00792 0.5322,0.09393 0.72612,0.28233c0.19392,0.1884 0.30329,0.4473 0.30317,0.71767v2c0,0.55228 0.44772,1 1,1h2c0.55228,0 1,0.44772 1,1c0,0.55228 -0.44772,1 -1,1h-2c-0.55228,0 -1,0.44772 -1,1v2c0,0.55228 -0.44772,1 -1,1c-0.55228,0 -1,-0.44772 -1,-1v-2c0,-0.55228 -0.44772,-1 -1,-1h-2c-0.55228,0 -1,-0.44772 -1,-1c0,-0.55228 0.44772,-1 1,-1h2c0.55228,0 1,-0.44772 1,-1v-2c-0.00023,-0.54104 0.42989,-0.98415 0.9707,-1z"></path></g></g></svg>